<svg xmlns="http://www.w3.org/2000/svg" viewBox="0 0 373.12 370"><defs><style>.cls-1,.cls-17,.cls-2,.cls-20,.cls-22,.cls-25,.cls-27,.cls-28,.cls-9{fill:none;stroke-miterlimit:10;}.cls-1{stroke:#bbe5ff;}.cls-1,.cls-9{stroke-linecap:round;}.cls-1,.cls-17,.cls-2,.cls-20,.cls-22,.cls-25,.cls-27,.cls-9{stroke-width:1px;}.cls-2,.cls-9{stroke:#8ab7ce;}.cls-3{fill:#d7e8f2;}.cls-4{fill:#a3caef;}.cls-5{fill:#4e6d84;}.cls-6{fill:#66e29e;}.cls-7{fill:#80aeff;}.cls-8{fill:#b3d6ff;}.cls-10{fill:#6e89a0;}.cls-11{fill:#85aed6;}.cls-12{fill:#96c1ea;}.cls-13{opacity:0.85;}.cls-14{fill:#96a8ea;}.cls-15{fill:#c0e0fc;}.cls-16{fill:#958ed6;}.cls-17{stroke:#958ed6;}.cls-18{font-size:18px;}.cls-18,.cls-23{fill:#fff;font-family:Impact, Impact;}.cls-19{fill:#679af4;}.cls-20{stroke:#80aeff;}.cls-21{fill:#f79b48;}.cls-22{stroke:#f79b48;}.cls-23{font-size:16px;}.cls-24{fill:#f78c57;}.cls-25{stroke:#f78c57;}.cls-26{fill:#f9bf3e;}.cls-27{stroke:#f9bf3e;}.cls-28{stroke:#96c1ea;stroke-width:1.33px;}</style></defs><title>header</title><g id="OBJECTS"><line class="cls-1" x1="131.13" y1="316.31" x2="131.13" y2="5.78"/><line class="cls-1" x1="53.6" y1="235.44" x2="53.6" y2="69.31"/><line class="cls-1" x1="148.54" y1="274.81" x2="148.54" y2="28.34"/><line class="cls-1" x1="222.62" y1="274.81" x2="222.62" y2="30.98"/><line class="cls-1" x1="294.67" y1="322.08" x2="294.67" y2="36.75"/><path class="cls-1" d="M125.46,135.17a2.64,2.64,0,1,1-2.64-2.64A2.64,2.64,0,0,1,125.46,135.17Z" transform="translate(-69.22 -68.5)"/><path class="cls-1" d="M203,71.64A2.64,2.64,0,1,1,200.35,69,2.64,2.64,0,0,1,203,71.64Z" transform="translate(-69.22 -68.5)"/><path class="cls-1" d="M220.4,94.2a2.64,2.64,0,1,1-2.64-2.64A2.64,2.64,0,0,1,220.4,94.2Z" transform="translate(-69.22 -68.5)"/><path class="cls-1" d="M366.53,102.12a2.64,2.64,0,1,1-2.64-2.64A2.64,2.64,0,0,1,366.53,102.12Z" transform="translate(-69.22 -68.5)"/><line class="cls-1" x1="328.69" y1="163.21" x2="328.69" y2="55.81"/><path class="cls-1" d="M400.55,121.26a2.64,2.64,0,1,1-2.64-2.64A2.64,2.64,0,0,1,400.55,121.26Z" transform="translate(-69.22 -68.5)"/><line class="cls-1" x1="369.98" y1="274.71" x2="369.98" y2="125.61"/><path class="cls-1" d="M441.84,191.06a2.64,2.64,0,1,1-2.64-2.64A2.64,2.64,0,0,1,441.84,191.06Z" transform="translate(-69.22 -68.5)"/><line class="cls-1" x1="15.42" y1="267.63" x2="15.42" y2="118.53"/><path class="cls-1" d="M87.28,184a2.64,2.64,0,1,1-2.64-2.64A2.64,2.64,0,0,1,87.28,184Z" transform="translate(-69.22 -68.5)"/><path class="cls-1" d="M294.48,96.84a2.64,2.64,0,1,1-2.64-2.64A2.64,2.64,0,0,1,294.48,96.84Z" transform="translate(-69.22 -68.5)"/><path class="cls-2" d="M423.43,241.56V211.12a5.21,5.21,0,0,0-4.87-5.2L405.07,205a80.19,80.19,0,0,0-7.88-19l8.93-10.17a5.21,5.21,0,0,0-.23-7.12l-21.53-21.53a5.21,5.21,0,0,0-7.12-.23l-10.17,8.92a80.76,80.76,0,0,0-19-7.87l-.88-13.5a5.22,5.22,0,0,0-5.2-4.87H311.56a5.21,5.21,0,0,0-5.2,4.87l-.88,13.5a80.58,80.58,0,0,0-19,7.87L276.31,147a5.21,5.21,0,0,0-7.12.23l-21.52,21.53a5.21,5.21,0,0,0-.23,7.12l8.92,10.17a80.61,80.61,0,0,0-7.88,19l-13.49.88a5.21,5.21,0,0,0-4.87,5.2v30.44a5.21,5.21,0,0,0,4.87,5.2l13.49.88a80.61,80.61,0,0,0,7.88,19l-8.92,10.17a5.21,5.21,0,0,0,.23,7.12l21.52,21.53a5.21,5.21,0,0,0,7.12.23l10.18-8.92a80.58,80.58,0,0,0,19,7.87l.88,13.5a5.22,5.22,0,0,0,5.2,4.87H342a5.22,5.22,0,0,0,5.2-4.87l.88-13.5a80.76,80.76,0,0,0,19-7.87l10.17,8.92a5.21,5.21,0,0,0,7.12-.23l21.53-21.53a5.21,5.21,0,0,0,.23-7.12l-8.93-10.17a80.19,80.19,0,0,0,7.88-19l13.49-.88A5.21,5.21,0,0,0,423.43,241.56Zm-91.75,32.53a48,48,0,1,1,42.85-42.85A48,48,0,0,1,331.68,274.09Z" transform="translate(-69.22 -68.5)"/><path class="cls-2" d="M226.43,279.57v-20.8a3.57,3.57,0,0,0-3.33-3.55l-9.21-.6a55.28,55.28,0,0,0-5.38-13l6.09-7a3.55,3.55,0,0,0-.16-4.86l-14.7-14.7a3.57,3.57,0,0,0-4.86-.16l-6.95,6.1a54.45,54.45,0,0,0-13-5.38l-.6-9.22a3.56,3.56,0,0,0-3.55-3.32H150a3.55,3.55,0,0,0-3.55,3.32l-.6,9.22a54.45,54.45,0,0,0-13,5.38l-7-6.1a3.57,3.57,0,0,0-4.86.16l-14.71,14.7a3.56,3.56,0,0,0-.15,4.86l6.09,7a55.28,55.28,0,0,0-5.38,13l-9.21.6a3.57,3.57,0,0,0-3.33,3.55v20.8a3.57,3.57,0,0,0,3.33,3.55l9.21.6a55.46,55.46,0,0,0,5.38,13l-6.09,6.95a3.56,3.56,0,0,0,.15,4.86l14.71,14.7a3.57,3.57,0,0,0,4.86.16l7-6.1a54.45,54.45,0,0,0,13,5.38l.6,9.22a3.55,3.55,0,0,0,3.55,3.32h20.79a3.56,3.56,0,0,0,3.55-3.32l.6-9.22a54.45,54.45,0,0,0,13-5.38l6.95,6.1a3.57,3.57,0,0,0,4.86-.16l14.7-14.7a3.55,3.55,0,0,0,.16-4.86l-6.09-6.95a55.46,55.46,0,0,0,5.38-13l9.21-.6A3.57,3.57,0,0,0,226.43,279.57Zm-62.67,22.21A32.78,32.78,0,1,1,193,272.51,32.79,32.79,0,0,1,163.76,301.78Z" transform="translate(-69.22 -68.5)"/><polygon class="cls-3" points="360.66 370 15.42 370 82.65 317.64 293.43 317.64 360.66 370"/><rect class="cls-4" x="82.65" y="163.21" width="210.78" height="122.48"/><rect class="cls-5" x="88.86" y="166.82" width="198.36" height="115.26"/><path class="cls-6" d="M214.81,260.39H170.32a1.66,1.66,0,0,1-1.66-1.65h0a1.67,1.67,0,0,1,1.66-1.66h44.49a1.66,1.66,0,0,1,1.65,1.66h0A1.65,1.65,0,0,1,214.81,260.39Z" transform="translate(-69.22 -68.5)"/><path class="cls-6" d="M267.14,260.39H222.65a1.65,1.65,0,0,1-1.65-1.65h0a1.66,1.66,0,0,1,1.65-1.66h44.49a1.67,1.67,0,0,1,1.66,1.66h0A1.66,1.66,0,0,1,267.14,260.39Z" transform="translate(-69.22 -68.5)"/><path class="cls-7" d="M288.19,260.39H276a1.66,1.66,0,0,1-1.66-1.65h0a1.67,1.67,0,0,1,1.66-1.66h12.2a1.67,1.67,0,0,1,1.66,1.66h0A1.66,1.66,0,0,1,288.19,260.39Z" transform="translate(-69.22 -68.5)"/><path class="cls-6" d="M229.09,291.69H170.32a1.66,1.66,0,0,1-1.66-1.65h0a1.67,1.67,0,0,1,1.66-1.66h58.77a1.66,1.66,0,0,1,1.65,1.66h0A1.65,1.65,0,0,1,229.09,291.69Z" transform="translate(-69.22 -68.5)"/><path class="cls-7" d="M273.13,291.69h-35a1.65,1.65,0,0,1-1.65-1.65h0a1.66,1.66,0,0,1,1.65-1.66h35a1.67,1.67,0,0,1,1.66,1.66h0A1.66,1.66,0,0,1,273.13,291.69Z" transform="translate(-69.22 -68.5)"/><path class="cls-7" d="M191.81,270.82H170.32a1.66,1.66,0,0,1-1.66-1.65h0a1.66,1.66,0,0,1,1.66-1.65h21.49a1.66,1.66,0,0,1,1.66,1.65h0A1.66,1.66,0,0,1,191.81,270.82Z" transform="translate(-69.22 -68.5)"/><path class="cls-6" d="M235.86,270.82h-38a1.65,1.65,0,0,1-1.65-1.65h0a1.65,1.65,0,0,1,1.65-1.65h38a1.65,1.65,0,0,1,1.65,1.65h0A1.65,1.65,0,0,1,235.86,270.82Z" transform="translate(-69.22 -68.5)"/><path class="cls-6" d="M209.51,250H170.32a1.66,1.66,0,0,1-1.66-1.65h0a1.66,1.66,0,0,1,1.66-1.65h39.19a1.65,1.65,0,0,1,1.65,1.65h0A1.65,1.65,0,0,1,209.51,250Z" transform="translate(-69.22 -68.5)"/><path class="cls-7" d="M309.08,250H217.75a1.65,1.65,0,0,1-1.65-1.65h0a1.65,1.65,0,0,1,1.65-1.65h91.33a1.65,1.65,0,0,1,1.65,1.65h0A1.65,1.65,0,0,1,309.08,250Z" transform="translate(-69.22 -68.5)"/><path class="cls-7" d="M288.19,281.26H268.7a1.66,1.66,0,0,1-1.65-1.66h0A1.65,1.65,0,0,1,268.7,278h19.49a1.66,1.66,0,0,1,1.66,1.65h0A1.67,1.67,0,0,1,288.19,281.26Z" transform="translate(-69.22 -68.5)"/><path class="cls-6" d="M261.65,281.26H170.32a1.67,1.67,0,0,1-1.66-1.66h0a1.66,1.66,0,0,1,1.66-1.65h91.33a1.65,1.65,0,0,1,1.65,1.65h0A1.66,1.66,0,0,1,261.65,281.26Z" transform="translate(-69.22 -68.5)"/><path class="cls-6" d="M214.81,312.56H170.32a1.66,1.66,0,0,1-1.66-1.65h0a1.67,1.67,0,0,1,1.66-1.66h44.49a1.66,1.66,0,0,1,1.65,1.66h0A1.65,1.65,0,0,1,214.81,312.56Z" transform="translate(-69.22 -68.5)"/><path class="cls-6" d="M267.14,312.56H222.65a1.65,1.65,0,0,1-1.65-1.65h0a1.66,1.66,0,0,1,1.65-1.66h44.49a1.67,1.67,0,0,1,1.66,1.66h0A1.66,1.66,0,0,1,267.14,312.56Z" transform="translate(-69.22 -68.5)"/><path class="cls-7" d="M288.19,312.56H276a1.66,1.66,0,0,1-1.66-1.65h0a1.67,1.67,0,0,1,1.66-1.66h12.2a1.67,1.67,0,0,1,1.66,1.66h0A1.66,1.66,0,0,1,288.19,312.56Z" transform="translate(-69.22 -68.5)"/><path class="cls-6" d="M229.09,343.86H170.32a1.66,1.66,0,0,1-1.66-1.65h0a1.66,1.66,0,0,1,1.66-1.65h58.77a1.65,1.65,0,0,1,1.65,1.65h0A1.65,1.65,0,0,1,229.09,343.86Z" transform="translate(-69.22 -68.5)"/><path class="cls-7" d="M273.13,343.86h-35a1.65,1.65,0,0,1-1.65-1.65h0a1.65,1.65,0,0,1,1.65-1.65h35a1.66,1.66,0,0,1,1.66,1.65h0A1.66,1.66,0,0,1,273.13,343.86Z" transform="translate(-69.22 -68.5)"/><path class="cls-7" d="M191.81,323H170.32a1.67,1.67,0,0,1-1.66-1.66h0a1.66,1.66,0,0,1,1.66-1.65h21.49a1.66,1.66,0,0,1,1.66,1.65h0A1.67,1.67,0,0,1,191.81,323Z" transform="translate(-69.22 -68.5)"/><path class="cls-6" d="M235.86,323h-38a1.66,1.66,0,0,1-1.65-1.66h0a1.65,1.65,0,0,1,1.65-1.65h38a1.65,1.65,0,0,1,1.65,1.65h0A1.66,1.66,0,0,1,235.86,323Z" transform="translate(-69.22 -68.5)"/><path class="cls-6" d="M209.51,302.13H170.32a1.67,1.67,0,0,1-1.66-1.66h0a1.66,1.66,0,0,1,1.66-1.65h39.19a1.65,1.65,0,0,1,1.65,1.65h0A1.66,1.66,0,0,1,209.51,302.13Z" transform="translate(-69.22 -68.5)"/><rect class="cls-7" x="146.88" y="230.32" width="85.43" height="3.31" rx="1.57" ry="1.57"/><path class="cls-7" d="M288.19,333.43H268.7a1.65,1.65,0,0,1-1.65-1.65h0a1.66,1.66,0,0,1,1.65-1.66h19.49a1.67,1.67,0,0,1,1.66,1.66h0A1.66,1.66,0,0,1,288.19,333.43Z" transform="translate(-69.22 -68.5)"/><path class="cls-6" d="M261.65,333.43H170.32a1.66,1.66,0,0,1-1.66-1.65h0a1.67,1.67,0,0,1,1.66-1.66h91.33a1.66,1.66,0,0,1,1.65,1.66h0A1.65,1.65,0,0,1,261.65,333.43Z" transform="translate(-69.22 -68.5)"/><polygon class="cls-8" points="360.66 338.05 15.42 338.05 82.65 285.69 293.43 285.69 360.66 338.05"/><line class="cls-9" x1="67.46" y1="288.95" x2="76.74" y2="281.96"/><line class="cls-9" x1="34.11" y1="314.08" x2="64.11" y2="291.48"/><path class="cls-9" d="M120.18,417.89H76.4a6.67,6.67,0,0,1-4-12L82,398.65" transform="translate(-69.22 -68.5)"/><line class="cls-9" x1="235.8" y1="349.39" x2="82.65" y2="349.39"/><line class="cls-9" x1="337.49" y1="349.39" x2="263.52" y2="349.39"/><line class="cls-9" x1="334.84" y1="309.71" x2="348.09" y2="319.69"/><line class="cls-9" x1="306.88" y1="288.65" x2="332.22" y2="307.74"/><polygon class="cls-10" points="104.16 290.59 92.69 290.59 96.87 287.31 107.84 287.31 104.16 290.59"/><polygon class="cls-10" points="97.61 296.7 84.9 296.7 89.78 292.87 101.89 292.87 97.61 296.7"/><polygon class="cls-10" points="116.96 296.7 104.26 296.7 108.22 292.87 120.33 292.87 116.96 296.7"/><polygon class="cls-10" points="136.32 296.7 123.62 296.7 126.67 292.87 138.77 292.87 136.32 296.7"/><polygon class="cls-10" points="155.68 296.7 142.97 296.7 145.11 292.87 157.21 292.87 155.68 296.7"/><polygon class="cls-10" points="175.03 296.7 162.33 296.7 163.55 292.87 175.65 292.87 175.03 296.7"/><polygon class="cls-10" points="194.39 296.7 181.69 296.7 181.99 292.87 194.09 292.87 194.39 296.7"/><polygon class="cls-10" points="213.75 296.7 201.04 296.7 200.43 292.87 212.53 292.87 213.75 296.7"/><polygon class="cls-10" points="233.1 296.7 220.4 296.7 218.87 292.87 230.97 292.87 233.1 296.7"/><polygon class="cls-10" points="252.46 296.7 239.76 296.7 237.31 292.87 249.41 292.87 252.46 296.7"/><polygon class="cls-10" points="271.82 296.7 259.12 296.7 255.75 292.87 267.85 292.87 271.82 296.7"/><polygon class="cls-10" points="291.18 296.7 278.47 296.7 274.19 292.87 286.3 292.87 291.18 296.7"/><polygon class="cls-10" points="90.45 303.11 76.74 303.11 82.41 298.66 95.42 298.66 90.45 303.11"/><polygon class="cls-10" points="111.34 303.11 97.63 303.11 102.23 298.66 115.24 298.66 111.34 303.11"/><polygon class="cls-10" points="132.23 303.11 118.52 303.11 122.06 298.66 135.07 298.66 132.23 303.11"/><polygon class="cls-10" points="153.12 303.11 139.41 303.11 141.88 298.66 154.89 298.66 153.12 303.11"/><polygon class="cls-10" points="174 303.11 160.3 303.11 161.71 298.66 174.72 298.66 174 303.11"/><polygon class="cls-10" points="194.89 303.11 181.19 303.11 181.53 298.66 194.54 298.66 194.89 303.11"/><polygon class="cls-10" points="215.78 303.11 202.07 303.11 201.36 298.66 214.37 298.66 215.78 303.11"/><polygon class="cls-10" points="236.67 303.11 222.96 303.11 221.19 298.66 234.2 298.66 236.67 303.11"/><polygon class="cls-10" points="257.56 303.11 243.85 303.11 241.01 298.66 254.02 298.66 257.56 303.11"/><polygon class="cls-10" points="278.45 303.11 264.74 303.11 260.84 298.66 273.85 298.66 278.45 303.11"/><polygon class="cls-10" points="299.34 303.11 285.63 303.11 280.66 298.66 293.68 298.66 299.34 303.11"/><polygon class="cls-10" points="81.62 311.01 66.67 311.01 73.38 305.75 87.5 305.75 81.62 311.01"/><polygon class="cls-10" points="104.4 311.01 89.45 311.01 94.9 305.75 109.02 305.75 104.4 311.01"/><polygon class="cls-10" points="240.72 311.01 112.23 311.01 116.42 305.75 237.81 305.75 240.72 311.01"/><polygon class="cls-10" points="263.85 311.01 248.9 311.01 245.54 305.75 259.66 305.75 263.85 311.01"/><polygon class="cls-10" points="286.63 311.01 271.68 311.01 267.06 305.75 281.18 305.75 286.63 311.01"/><polygon class="cls-10" points="309.41 311.01 294.46 311.01 288.58 305.75 302.7 305.75 309.41 311.01"/><polygon class="cls-10" points="127.39 290.59 115.91 290.59 119.08 287.31 130.05 287.31 127.39 290.59"/><polygon class="cls-10" points="143.78 290.59 132.3 290.59 134.75 287.31 145.72 287.31 143.78 290.59"/><polygon class="cls-10" points="160.17 290.59 148.7 290.59 150.42 287.31 161.4 287.31 160.17 290.59"/><polygon class="cls-10" points="176.56 290.59 165.09 290.59 166.1 287.31 177.07 287.31 176.56 290.59"/><polygon class="cls-10" points="192.96 290.59 181.48 290.59 181.77 287.31 192.74 287.31 192.96 290.59"/><polygon class="cls-10" points="209.35 290.59 197.88 290.59 197.44 287.31 208.41 287.31 209.35 290.59"/><polygon class="cls-10" points="226.29 290.59 214.82 290.59 213.64 287.31 224.61 287.31 226.29 290.59"/><polygon class="cls-10" points="252.25 290.59 240.77 290.59 238.46 287.31 249.43 287.31 252.25 290.59"/><polygon class="cls-10" points="267.82 290.59 256.35 290.59 253.35 287.31 264.32 287.31 267.82 290.59"/><polygon class="cls-10" points="283.39 290.59 271.92 290.59 268.24 287.31 279.21 287.31 283.39 290.59"/><polygon class="cls-11" points="227.4 330.95 148.68 330.95 154.89 316.31 221.19 316.31 227.4 330.95"/><path class="cls-12" d="M15.42,338H360.66a0,0,0,0,1,0,0v.65a5.12,5.12,0,0,1-5.12,5.12h-335a5.12,5.12,0,0,1-5.12-5.12V338a0,0,0,0,1,0,0Z"/><g class="cls-13"><rect class="cls-14" x="145.05" y="97.43" width="90.75" height="153.76" rx="2.69" ry="2.69"/><rect class="cls-15" x="148.54" y="103.34" width="83.76" height="128.63"/><path class="cls-15" d="M264.75,310.36a5.11,5.11,0,1,1-5.11-5.11A5.1,5.1,0,0,1,264.75,310.36Z" transform="translate(-69.22 -68.5)"/></g><rect class="cls-16" x="34.97" y="122.73" width="59.02" height="59.02" rx="11.43" ry="11.43"/><rect class="cls-17" x="31.47" y="119.23" width="66.01" height="66.01" rx="12.78" ry="12.78"/><text class="cls-18" transform="translate(45.5 159.75)">SASS</text><rect class="cls-19" x="275.83" y="200.81" width="59.02" height="59.02" rx="11.43" ry="11.43"/><rect class="cls-20" x="272.33" y="197.31" width="66.01" height="66.01" rx="12.78" ry="12.78"/><rect class="cls-21" x="258.21" y="137.13" width="41.84" height="41.84" rx="8.1" ry="8.1"/><rect class="cls-22" x="255.73" y="134.66" width="46.8" height="46.8" rx="9.06" ry="9.06"/><text class="cls-23" transform="translate(265.51 163.83)">WEB</text><rect class="cls-24" x="104.43" y="57.03" width="59.02" height="59.02" rx="11.43" ry="11.43"/><rect class="cls-25" x="100.93" y="53.54" width="66.01" height="66.01" rx="12.78" ry="12.78"/><text class="cls-18" transform="translate(115.24 93.83)">HTML</text><rect class="cls-26" x="75.68" y="213.64" width="43.61" height="43.61" rx="8.44" ry="8.44"/><rect class="cls-27" x="73.09" y="211.06" width="48.77" height="48.77" rx="9.44" ry="9.44"/><text class="cls-18" transform="translate(89.51 242.17)">JS</text><path class="cls-28" d="M409.35,343.2a2.65,2.65,0,1,1-2.64-2.64A2.64,2.64,0,0,1,409.35,343.2Z" transform="translate(-69.22 -68.5)"/><path class="cls-28" d="M371.2,171.85a2.65,2.65,0,1,1-2.64-2.65A2.65,2.65,0,0,1,371.2,171.85Z" transform="translate(-69.22 -68.5)"/><path class="cls-24" d="M391.75,236.16a1.71,1.71,0,1,1-1.71-1.71A1.72,1.72,0,0,1,391.75,236.16Z" transform="translate(-69.22 -68.5)"/><circle class="cls-24" cx="59.19" cy="266.68" r="1.71"/><circle class="cls-24" cx="80.54" cy="103.34" r="1.71"/><path class="cls-24" d="M380.34,349.15a1.72,1.72,0,1,1-1.72-1.72A1.72,1.72,0,0,1,380.34,349.15Z" transform="translate(-69.22 -68.5)"/><path class="cls-28" d="M196.11,200.52a2.64,2.64,0,1,1-2.64-2.64A2.64,2.64,0,0,1,196.11,200.52Z" transform="translate(-69.22 -68.5)"/><path class="cls-28" d="M103.33,342.21a2.64,2.64,0,1,1-2.64-2.64A2.64,2.64,0,0,1,103.33,342.21Z" transform="translate(-69.22 -68.5)"/><path class="cls-28" d="M133.69,171.85a2.64,2.64,0,1,1-2.64-2.65A2.64,2.64,0,0,1,133.69,171.85Z" transform="translate(-69.22 -68.5)"/><text class="cls-18" transform="translate(284.39 237.75)">REACT</text></g></svg>