<?xml version="1.0"?>
<svg xmlns="http://www.w3.org/2000/svg" height="512px" viewBox="-85 0 569 569.28856" width="512px"><path d="m19.066406 426.75c.042969-36.644531 29.738282-66.34375 66.386719-66.382812h13.101563l-21.589844 43.175781c-2.34375 4.683593-.445313 10.378906 4.242187 12.722656 0 0 .003907 0 .003907.003906l31.457031 15.722657-8.058594 40.277343c-.613281 3.097657.355469 6.296875 2.585937 8.53125l85.351563 85.351563c.140625.140625.332031.191406.472656.3125.320313.300781.65625.578125 1.015625.835937.089844.085938.183594.167969.285156.246094.304688.152344.621094.285156.945313.398437.238281.113282.449219.246094.695313.339844l.539062.199219c.886719.304687 1.8125.476563 2.75.511719.941406-.011719 1.875-.160156 2.769531-.445313l.542969-.199219c.246094-.09375.453125-.226562.691406-.339843.324219-.113281.640625-.246094.949219-.398438.097656-.078125.195313-.160156.285156-.246093.355469-.257813.695313-.535157 1.015625-.835938.140625-.125.328125-.171875.472656-.3125l54.101563-54.121094h52.972656v56.898438h18.96875v-113.796875h-18.96875v37.933593h-34.007812l12.261719-12.261718c2.234374-2.238282 3.203124-5.4375 2.589843-8.535156l-8.058593-40.3125 31.453124-15.707032c4.6875-2.335937 6.589844-8.03125 4.253907-12.71875-.003907 0-.003907-.003906-.003907-.003906l-21.59375-43.226562h13.105469c36.644531.042968 66.339844 29.738281 66.382813 66.382812v142.25h18.96875v-142.25c-.058594-47.113281-38.238282-85.292969-85.351563-85.351562h-56.898437v-44.664063c30.5-18.917969 49.488281-51.859375 50.574218-87.730469l.320313-9.851562h6.003906c20.949219 0 37.933594-16.984375 37.933594-37.933594s-16.984375-37.933594-37.933594-37.933594v-47.414062c-.042969-36.648438-29.738281-66.34375-66.382812-66.382813h-112.851563l-46.46875-9.292969c-5.132812-1.050781-10.140625 2.261719-11.1875 7.394532-.128906.625-.191406 1.261718-.191406 1.898437v28.449219c.015625 16.007812 8.121094 30.925781 21.542969 39.648438-6.058594 14.453124-8.96875 30.035156-8.535157 45.699218h-3.527343c-20.949219 0-37.929688 16.984375-37.929688 37.933594s16.980469 37.933594 37.929688 37.933594h6.003906l.324219 9.851562c1.082031 35.875 20.074218 68.816406 50.574218 87.730469v44.667969h-56.902343c-47.113281.054687-85.289063 38.234375-85.347657 85.347656v142.25h18.964844zm145.875-66.382812 14.839844 29.683593-10.070312 45.328125-23.871094-75.011718zm87.71875 0-23.871094 75.011718-10.070312-45.332031 14.84375-29.679687zm-55.308594 37.933593h3.792969l16.226563 73.019531-18.121094 56.898438-18.105469-56.898438zm5.5-18.96875h-7.242187l-9.484375-18.964843h26.210938zm75.867188-18.964843 21.585938 43.175781-29.445313 14.71875c-3.835937 1.925781-5.902344 6.183593-5.035156 10.382812l8.484375 42.4375-54.195313 54.167969 52.453125-164.882812zm53.296875-199.148438c0 10.472656-8.492187 18.964844-18.964844 18.964844h-5.367187l1.261718-37.933594h4.105469c10.472657 0 18.964844 8.492188 18.964844 18.96875zm-237.082031-140.164062 36.039062 7.207031c.621094.132812 1.257813.195312 1.894532.191406h113.800781c26.171875.03125 47.382812 21.242187 47.414062 47.414063v41.367187l-.949219-.804687c-.71875-.636719-1.402343-1.261719-2.074218-1.898438-.902344-.824219-1.765625-1.640625-2.582032-2.457031-.625-.617188-1.230468-1.230469-1.808593-1.894531-.75-.796876-1.441407-1.601563-2.117188-2.410157-.519531-.625-1.03125-1.25-1.507812-1.898437-.617188-.824219-1.164063-1.6875-1.707031-2.550782-.40625-.652343-.835938-1.316406-1.203126-2-.484374-.949218-.949218-1.894531-1.328124-2.84375-.304688-.722656-.625-1.414062-.890626-2.179687-.378906-1.082031-.675781-2.269531-.949218-3.453125-.199219-.777344-.425782-1.5-.585938-2.324219-.277344-1.394531-.457031-2.949219-.648437-4.503906-.082031-.757813-.214844-1.441406-.28125-2.25-.21875-2.386719-.332031-5.054687-.332031-7.898437 0-5.238282-4.246094-9.484376-9.484376-9.484376h-142.25c-1.726562-.011718-3.453124-.1875-5.148437-.519531-1.71875-.34375-3.402344-.832031-5.035156-1.460937h-.121094c-10.921875-4.246094-18.125-14.753906-18.144531-26.46875zm33.410156 64.296874-2.628906 6.5625c-3.695313 9.179688-9.796875 17.1875-17.664063 23.1875 0-.390624 0-.777343 0-1.167968.054688-.949219.167969-1.847656.253907-2.769532.210937-2.105468.464843-4.199218.816406-6.277343.171875-1.015625.351562-2.027344.558594-3.042969.417968-2.078125.949218-4.136719 1.480468-6.175781.238282-.878907.453125-1.761719.71875-2.644531.882813-2.84375 1.898438-5.691407 3.027344-8.46875 2.792969.53125 5.632812.796874 8.476562.796874zm-42.890625 94.832032c-10.476563 0-18.96875-8.492188-18.96875-18.964844 0-10.476562 8.492187-18.964844 18.96875-18.964844h4.105469l1.261718 37.929688zm25.289063 28.183594-2.378907-71.125c15.855469-8.15625 28.253907-21.738282 34.933594-38.273438l5.472656-13.617188h107.757813c2.105468 25.160157 13.011718 36.148438 29.835937 50.261719.769531.644531 1.636719 1.164063 2.570313 1.535157l1.195312.472656-2.371094 70.765625c-1.601562 48.878906-42.523437 87.210937-91.40625 85.609375-46.632812-1.527344-84.082031-38.976563-85.609374-85.609375zm50.574218 97.667968c24.449219 9.21875 51.417969 9.21875 75.867188 0v35.363282h-75.867188zm-35.382812 54.332032 52.453125 164.886718-54.207031-54.207031 8.496093-42.398437c.84375-4.195313-1.226562-8.433594-5.054687-10.347657l-29.445313-14.71875 21.585938-43.214843zm0 0" fill="#FFFFFF"/><path d="m66.484375 455.199219h18.964844v113.800781h-18.964844zm0 0" fill="#FFFFFF"/><path d="m208.734375 208.632812v-18.964843h-15.296875l14.8125-44.417969-18.019531-5.996094-18.964844 56.902344c-1.65625 4.96875 1.03125 10.339844 6 11.992188.972656.324218 1.992187.488281 3.019531.488281h28.449219zm0 0" fill="#FFFFFF"/><path d="m230.476562 211.414062c-10.34375 10.402344-24.417968 16.230469-39.089843 16.1875h-11.105469v18.964844h11.105469c19.703125.058594 38.609375-7.773437 52.5-21.746094zm0 0" fill="#FFFFFF"/><path d="m161.316406 161.21875c0 10.472656-8.492187 18.964844-18.964844 18.964844-10.476562 0-18.96875-8.492188-18.96875-18.964844 0-10.476562 8.492188-18.96875 18.96875-18.96875 10.472657 0 18.964844 8.492188 18.964844 18.96875zm0 0" fill="#FFFFFF"/><path d="m275.117188 161.21875c0 10.472656-8.492188 18.964844-18.96875 18.964844-10.472657 0-18.964844-8.492188-18.964844-18.964844 0-10.476562 8.492187-18.96875 18.964844-18.96875 10.476562 0 18.96875 8.492188 18.96875 18.96875zm0 0" fill="#FFFFFF"/></svg>
