<?xml version="1.0"?>
<svg xmlns="http://www.w3.org/2000/svg" height="512px" version="1.1" viewBox="0 0 935.00039 935" width="512px">
<g id="surface1">
<path d="M 930.433594 472.066406 L 821.351562 362.980469 C 815.265625 356.894531 805.398438 356.894531 799.316406 362.980469 L 498.664062 663.632812 L 364.867188 529.828125 L 397.375 529.828125 C 421.027344 559.335938 456.792969 576.535156 494.617188 576.585938 C 542.503906 576.59375 586.042969 548.808594 606.191406 505.367188 C 608.488281 500.546875 608.148438 494.882812 605.304688 490.363281 C 602.472656 485.839844 597.507812 483.097656 592.171875 483.078125 L 514.246094 483.078125 L 514.246094 420.746094 L 592.171875 420.746094 C 597.507812 420.734375 602.472656 417.984375 605.304688 413.46875 C 608.148438 408.949219 608.488281 403.285156 606.191406 398.460938 C 586.042969 355.023438 542.503906 327.234375 494.617188 327.25 C 456.792969 327.285156 421.023438 344.484375 397.375 374 L 333.699219 374 L 525.269531 182.433594 C 527.089844 180.609375 528.441406 178.359375 529.175781 175.894531 L 575.925781 20.054688 C 577.574219 14.558594 576.074219 8.613281 572.015625 4.566406 C 567.964844 0.511719 562.015625 -0.992188 556.523438 0.660156 L 400.691406 47.402344 C 398.21875 48.140625 395.976562 49.488281 394.152344 51.316406 L 68.753906 376.707031 C 31.804688 397.863281 6.824219 435.023438 1.199219 477.234375 C -4.429688 519.429688 9.941406 561.84375 40.058594 591.925781 L 343.070312 894.925781 C 367.835938 919.78125 401.253906 934.078125 436.332031 934.820312 L 436.332031 935 L 514.246094 935 C 519.460938 935 524.324219 932.394531 527.210938 928.066406 C 531.445312 922.238281 538.214844 918.796875 545.414062 918.796875 C 552.617188 918.796875 559.390625 922.238281 563.621094 928.066406 C 566.507812 932.394531 571.367188 935 576.582031 935 L 623.332031 935 C 631.941406 935 638.914062 928.023438 638.914062 919.414062 L 638.914062 888.246094 L 792.828125 888.246094 L 853.296875 903.355469 C 855.777344 903.984375 858.382812 903.984375 860.871094 903.355469 L 923.207031 887.777344 C 930.136719 886.039062 935 879.8125 935 872.664062 L 935 810.328125 C 935 803.183594 930.136719 796.953125 923.207031 795.214844 L 860.871094 779.628906 C 858.382812 778.988281 855.777344 778.988281 853.296875 779.628906 L 792.828125 794.75 L 629.789062 794.75 L 930.433594 494.105469 C 936.511719 488.011719 936.511719 478.152344 930.433594 472.066406 Z M 638.914062 825.910156 L 794.75 825.910156 C 796.023438 825.910156 797.300781 825.753906 798.535156 825.441406 L 857.085938 810.8125 L 903.832031 822.5 L 903.832031 860.488281 L 857.085938 872.175781 L 798.535156 857.542969 C 797.300781 857.242188 796.023438 857.078125 794.75 857.078125 L 638.914062 857.078125 Z M 405.164062 405.164062 C 410.257812 405.164062 415.023438 402.671875 417.945312 398.496094 C 435.429688 373.417969 464.042969 358.464844 494.617188 358.417969 C 520.988281 358.367188 546.097656 369.730469 563.46875 389.585938 L 514.246094 389.585938 C 497.035156 389.585938 483.082031 403.535156 483.082031 420.746094 L 483.082031 483.078125 C 483.082031 500.292969 497.035156 514.25 514.246094 514.25 L 563.46875 514.25 C 546.097656 534.097656 520.988281 545.46875 494.617188 545.414062 C 464.042969 545.371094 435.429688 530.40625 417.945312 505.332031 C 415.023438 501.15625 410.257812 498.667969 405.164062 498.667969 L 333.699219 498.667969 L 302.539062 467.5 L 405.164062 467.5 L 405.164062 436.335938 L 271.367188 436.335938 L 240.203125 405.164062 Z M 289.632812 374 L 224.625 374 L 459.710938 138.914062 L 492.21875 171.417969 Z M 537.746094 38.8125 L 528.402344 69.984375 L 506.578125 48.164062 Z M 472.65625 58.363281 L 518.222656 103.929688 L 506.816406 141.949219 L 434.636719 69.769531 Z M 405.164062 84.367188 L 437.671875 116.875 L 186.671875 367.875 C 170.792969 361.625 153.871094 358.417969 136.800781 358.417969 C 134.792969 358.417969 132.832031 358.640625 130.835938 358.710938 Z M 439.792969 903.835938 C 411.765625 903.90625 384.867188 892.773438 365.101562 872.902344 L 62.097656 569.898438 C 20.847656 528.644531 20.847656 461.761719 62.097656 420.515625 C 103.355469 379.261719 170.230469 379.261719 211.476562 420.515625 L 514.484375 723.511719 C 544.6875 753.726562 553.730469 799.15625 537.382812 838.625 C 521.035156 878.09375 482.511719 903.835938 439.792969 903.835938 Z M 607.75 872.664062 L 607.75 903.835938 L 584.046875 903.835938 C 574.023438 893.175781 560.039062 887.140625 545.414062 887.160156 C 544.703125 887.160156 544.015625 887.34375 543.3125 887.375 C 548.953125 880.816406 553.972656 873.742188 558.292969 866.246094 L 607.75 816.789062 Z M 576.289062 804.101562 C 576.289062 802.105469 576.582031 800.144531 576.582031 798.125 C 576.683594 761.828125 562.253906 726.996094 536.523438 701.402344 L 520.703125 685.664062 L 576.582031 629.785156 L 612.316406 665.515625 L 634.351562 643.484375 L 598.617188 607.75 L 623.332031 583.035156 L 643.480469 603.179688 L 665.519531 581.152344 L 645.367188 561 L 670.085938 536.289062 L 705.8125 572.019531 L 727.851562 549.980469 L 692.113281 514.25 L 716.832031 489.539062 L 736.980469 509.683594 L 759.015625 487.644531 L 738.867188 467.5 L 763.582031 442.785156 L 799.316406 478.515625 L 821.351562 456.480469 L 785.617188 420.746094 L 810.335938 396.035156 L 897.382812 483.078125 Z M 576.289062 804.101562 " style=" fill-rule:nonzero;fill-opacity:1;" stroke="#FFFFFF" fill="#FFFFFF"/>
<path d="M 98.59375 474.875 L 71.121094 460.128906 C 65.351562 470.925781 62.339844 482.972656 62.335938 495.207031 L 93.5 495.207031 C 93.476562 488.105469 95.230469 481.117188 98.59375 474.875 Z M 98.59375 474.875 " style=" fill-rule:nonzero;fill-opacity:1;" stroke="#FFFFFF" fill="#FFFFFF"/>
<path d="M 101.726562 520.625 L 76.574219 539.039062 C 78.871094 542.167969 81.402344 545.121094 84.144531 547.859375 L 160.394531 624.121094 L 182.433594 602.089844 L 106.199219 525.84375 C 104.582031 524.226562 103.082031 522.472656 101.726562 520.625 Z M 101.726562 520.625 " style=" fill-rule:nonzero;fill-opacity:1;" stroke="#FFFFFF" fill="#FFFFFF"/>
</g>
</svg>
